# xmcd CD database file
#
# Track frame offsets:
#	150
#	71394
#	110899
#	153148
#
# Disc length: 2838 seconds
#
# Revision: 0
# Processed by: cddbd v1.5.2PL0 Copyright (c) Steve Scherf et al.
# Submitted via: CDex 1.51
#
DISCID=2c0b1404
DTITLE=Keith Jarrett, Gary Peacock and Jack DeJohnette - After The Fall [Disc 1]
DYEAR=2018
DGENRE=Jazz
TTITLE0=The Masquerade Is Over
TTITLE1=Scrapple From The Apple
TTITLE2=Old Folks
TTITLE3=Autumn Leaves
EXTD=YEAR: 2018
EXTT0=
EXTT1=
EXTT2=
EXTT3=
PLAYORDER=
